<?xml version="1.0" encoding="utf-8"?>
<!-- Generator: Adobe Illustrator 19.2.1, SVG Export Plug-In . SVG Version: 6.00 Build 0)  -->
<svg version="1.1" id="Camada_1" xmlns="http://www.w3.org/2000/svg" xmlns:xlink="http://www.w3.org/1999/xlink" x="0px" y="0px"
	 viewBox="0 0 33.62 33.62" style="enable-background:new 0 0 33.62 33.62;" xml:space="preserve">
<style type="text/css">
	.st0{fill:#FFFFFF;}
	.st1{fill:#F26522;}
</style>
<circle class="st0" cx="16.81" cy="16.81" r="16.81"/>
<g>
	<path class="st1" d="M26.13,23.54c0-0.01,0-0.02,0-0.02C26.13,23.53,26.13,23.53,26.13,23.54z"/>
	<path class="st1" d="M26.13,23.58C26.13,23.58,26.13,23.58,26.13,23.58c0-0.02,0-0.03,0-0.04c0,0,0,0.01,0,0.02
		c0.02-0.38-0.1-0.82-0.54-1.36c-0.58-0.69-1.92-1.32-3.32-1.66c0,0,0,0,0,0c-1.06-0.93-1.33-1.2-1.39-1.25l0-0.01
		c0,0-0.01,0-0.01,0c0,0,0,0,0,0c0,0,0,0,0,0.01c-1.23,0.21-3.61,0.89-4.85,1.33c0.82,0.91,1.6,1.65,2.35,2.25l0,0
		c0.01,0,0.01,0.01,0.02,0.01c0.14,0.11,0.27,0.21,0.41,0.31c0.02,0.01,0.04,0.03,0.06,0.04c0.15,0.11,0.31,0.22,0.46,0.32
		c0.05,0.03,0.09,0.06,0.14,0.09c0,0,0,0,0,0c0.06,0.04,0.13,0.08,0.19,0.12c0.03,0.02,0.07,0.04,0.1,0.06l0,0
		c0.02,0.01,0.04,0.03,0.07,0.04c0.12,0.07,0.25,0.14,0.37,0.21c0.01,0.01,0.03,0.02,0.04,0.02c0,0,0,0,0,0
		c0.2,0.11,0.4,0.2,0.59,0.29l0,0c0.01,0,0.02,0.01,0.02,0.01c0.01,0.01,0.02,0.01,0.04,0.02c0,0,0,0,0,0
		c0.66,0.29,1.28,0.48,1.85,0.57c0.9-0.81,2.21-1.16,2.87-0.86c0.18,0.08,0.17,0.27,0.1,0.49c-0.39,0.54-1.03,1.05-2.07,1.03
		c-2.16-0.04-5.27-1.23-8.97-6.02C11.56,15.64,5.11,16.76,3,17.39c0.99,1.85,1.95,3.17,1.95,3.17s5.18-2.29,10.52,2.64
		c0.69,0.64,1.46,1.22,2.26,1.7c-1.16-0.52-2.35-1.18-3.52-1.93C9.83,20.15,5.6,21.8,5.6,21.8c0.29,0.55,1.37,1.82,1.83,2.22
		c3.86-1.08,7.62,1.05,10.46,2.42c0.74,0.36,1.4,0.6,1.99,0.75c-1.19-0.14-2.55-0.51-4.12-1.12c-4-1.56-7-0.79-7-0.79
		c1.4,1.59,5.34,3.7,10.36,3.14c4.66-0.52,6.14-2.92,6.33-3.27c0.24-0.34,0.4-0.67,0.51-0.93c0.11-0.27,0.15-0.49,0.16-0.59
		c0-0.01,0-0.01,0-0.01c0-0.01,0-0.02,0-0.03C26.13,23.59,26.13,23.58,26.13,23.58C26.13,23.58,26.13,23.58,26.13,23.58z
		 M25.67,23.17c-0.36-0.47-1.19-0.94-2.64-1.09c-0.44-0.05-0.88-0.05-1.31-0.02c0.06-0.16,0.12-0.31,0.17-0.46
		C23.42,21.66,25.1,22.05,25.67,23.17z M21.21,24.06c-0.11,0.07-0.21,0.16-0.31,0.24c0.1-0.27,0.2-0.57,0.31-0.87
		c0.9-0.46,2.02-0.71,3.29-0.45c0.68,0.14,1.04,0.38,1.21,0.66C24.53,22.93,22.22,23.36,21.21,24.06z"/>
	<path class="st1" d="M12.64,17.27c0.77,0.42,1.47,1,2.07,1.78c0.21,0.27,0.41,0.52,0.61,0.77c2.49-1.34,5.83-1.79,5.83-1.79
		c0.84,0.39,1.53,1.18,1.53,1.18c0.22-0.64,1.13-2.84,1.43-3.76c-1.07-1.15-1.91-2.12-1.91-2.12l0,0l0,0
		C18.38,14,14.51,16.08,12.64,17.27z"/>
	<path class="st1" d="M10.6,16.51c0.29,0.07,0.58,0.15,0.87,0.25c4.65-3.73,10.99-5.04,10.99-5.04c2.15,1.65,2.25,2.48,2.25,2.48
		c0.47-1.23,0.54-1.17,1.21-3.08c-0.33-2.27-2.68-5.79-2.68-5.79c-5.73,1.14-14.06,8.01-13.63,8.9C10.11,15.24,10.41,16,10.6,16.51z
		"/>
</g>
</svg>
